<?xml version="1.0" encoding="utf-8"?>
<!-- Generator: Adobe Illustrator 25.4.1, SVG Export Plug-In . SVG Version: 6.00 Build 0)  -->
<svg  width="100" version="1.1" id="Layer_1" xmlns="http://www.w3.org/2000/svg" xmlns:xlink="http://www.w3.org/1999/xlink" x="0px" y="0px"
	 viewBox="0 0 80 40" style="enable-background:new 0 0 80 40;" xml:space="preserve">
<style type="text/css">
	.st0{clip-path:url(#SVGID_00000089542512397316910050000000021845932144681627_);fill:#64BB46;}
	.st1{clip-path:url(#SVGID_00000089542512397316910050000000021845932144681627_);fill:#97CD79;}
	.st2{clip-path:url(#SVGID_00000089542512397316910050000000021845932144681627_);}
	.st3{fill:#FFFFFF;}
	.st4{clip-path:url(#SVGID_00000028319008212366178130000016688361370463833221_);fill:#EB5727;}
	.st5{clip-path:url(#SVGID_00000028319008212366178130000016688361370463833221_);fill:#F78457;}
	.st6{clip-path:url(#SVGID_00000028319008212366178130000016688361370463833221_);}
	.st7{clip-path:url(#SVGID_00000084516017480754639630000008579537572224961719_);fill:#00A7E8;}
	.st8{clip-path:url(#SVGID_00000084516017480754639630000008579537572224961719_);fill:#01BCEF;}
	.st9{clip-path:url(#SVGID_00000084516017480754639630000008579537572224961719_);}
	.st10{fill:#97CD79;}
	.st11{fill:#02BCEF;}
	.st12{fill:#F78457;}
	.st13{fill:#00A7E8;}
	.st14{fill:#64BB46;}
	.st15{fill:#EA5727;}
	.st16{fill:#0B0E0A;}
	.st17{fill:#060A0B;}
	.st18{fill:#0B0807;}
	.st19{fill:#FEFEFE;}
	.st20{fill:#0A0C0A;}
</style>
<g>
	<defs>
		<path id="SVGID_1_" d="M2002.22,52.95h-266.38c-1.97,0-3.56-1.59-3.56-3.56v-289.85c0-1.97,1.59-3.56,3.56-3.56h266.38
			c1.97,0,3.56,1.59,3.56,3.56V49.39C2005.78,51.36,2004.18,52.95,2002.22,52.95z"/>
	</defs>
	<clipPath id="SVGID_00000036238599260403759580000009936224966029519256_">
		<use xlink:href="#SVGID_1_"  style="overflow:visible;"/>
	</clipPath>
	
		<rect x="1674.29" y="-191" style="clip-path:url(#SVGID_00000036238599260403759580000009936224966029519256_);fill:#64BB46;" width="344.7" height="273.36"/>
	
		<circle style="clip-path:url(#SVGID_00000036238599260403759580000009936224966029519256_);fill:#97CD79;" cx="1871.02" cy="-319.51" r="196.52"/>
	<g style="clip-path:url(#SVGID_00000036238599260403759580000009936224966029519256_);">
		<g>
			<path class="st3" d="M1832.76-28.44l-11.53,35.52h-67.98l76.21-211.05h80.49l76.21,211.05H1917l-11.82-35.52H1832.76z
				 M1869.12-151.65h-1.18l-21.87,74.78h45.52L1869.12-151.65z"/>
			<path d="M1988.36,8.61h-72.46l-11.82-35.52h-70.2l-11.53,35.52h-71.28l77.32-214.12h82.65L1988.36,8.61z M1918.11,5.55h65.88
				l-75.11-207.98h-78.34L1755.44,5.55h64.68l11.53-35.52h74.64L1918.11,5.55z M1893.65-75.33h-49.63l22.77-77.85h3.47
				L1893.65-75.33z M1848.11-78.4h41.41l-20.98-69.84L1848.11-78.4z"/>
		</g>
	</g>
</g>
<g>
	<defs>
		<path id="SVGID_00000004535863196372371090000006055381270949038009_" d="M2291.08,52.95H2024.7c-1.97,0-3.56-1.59-3.56-3.56
			v-289.85c0-1.97,1.59-3.56,3.56-3.56h266.38c1.97,0,3.56,1.59,3.56,3.56V49.39C2294.64,51.36,2293.05,52.95,2291.08,52.95z"/>
	</defs>
	<clipPath id="SVGID_00000147924030672958878460000010963092239231372952_">
		<use xlink:href="#SVGID_00000004535863196372371090000006055381270949038009_"  style="overflow:visible;"/>
	</clipPath>
	
		<rect x="1963.16" y="-191" style="clip-path:url(#SVGID_00000147924030672958878460000010963092239231372952_);fill:#EB5727;" width="344.7" height="273.36"/>
	
		<circle style="clip-path:url(#SVGID_00000147924030672958878460000010963092239231372952_);fill:#F78457;" cx="2159.89" cy="-319.51" r="196.52"/>
	<g style="clip-path:url(#SVGID_00000147924030672958878460000010963092239231372952_);">
		<g>
			<path class="st3" d="M2230.16-188.6c12.51,10.25,18.77,23.84,18.77,40.79c0,18.52-9.16,32.51-27.49,41.97v1.18
				c10.24,4.54,18.52,10.79,24.83,18.77c6.3,7.98,9.46,17.69,9.46,29.12c0,20.3-6.36,36.01-19.07,47.15
				c-12.71,11.13-30.4,16.7-53.06,16.7h-122.37v-211.05h117.35C2200.46-203.97,2217.65-198.84,2230.16-188.6z M2163.21-120.32
				c6.9,0,12.22-1.67,15.96-5.03c3.74-3.35,5.61-7.88,5.61-13.6c0-5.71-1.87-10.24-5.61-13.6c-3.75-3.35-9.07-5.03-15.96-5.03
				h-36.95v37.25H2163.21z M2183.75-45.68c3.84-3.45,5.76-8.23,5.76-14.34c0-6.11-1.92-10.89-5.76-14.34
				c-3.84-3.45-9.41-5.17-16.7-5.17h-40.79v39.02h40.79C2174.34-40.51,2179.91-42.23,2183.75-45.68z"/>
			<path d="M2183.61,8.61h-123.9V-205.5h118.88c22.13,0,39.81,5.29,52.55,15.72l0,0c12.83,10.5,19.33,24.63,19.33,41.98
				c0,18.52-9,32.81-26.75,42.5c9.69,4.56,17.67,10.77,23.76,18.47c6.5,8.22,9.79,18.34,9.79,30.07c0,20.66-6.59,36.92-19.59,48.3
				C2224.74,2.87,2206.55,8.61,2183.61,8.61z M2062.77,5.55h120.84c22.18,0,39.69-5.49,52.05-16.32
				c12.3-10.78,18.54-26.25,18.54-45.99c0-11.02-3.07-20.5-9.13-28.16c-6.12-7.74-14.28-13.9-24.25-18.32l-0.91-0.4v-3.12l0.83-0.43
				c17.94-9.26,26.66-22.54,26.66-40.61c0-16.39-6.12-29.71-18.21-39.6c-12.18-9.97-29.21-15.02-50.61-15.02h-115.81V5.55z
				 M2167.05-38.97h-42.32v-42.09h42.32c7.65,0,13.61,1.87,17.72,5.57c4.17,3.74,6.28,8.94,6.28,15.48c0,6.54-2.11,11.75-6.28,15.48
				C2180.67-40.85,2174.7-38.97,2167.05-38.97z M2127.8-42.04h39.26c6.87,0,12.14-1.61,15.67-4.78l0,0
				c3.54-3.17,5.25-7.48,5.25-13.19c0-5.7-1.72-10.02-5.26-13.19c-3.53-3.17-8.8-4.78-15.67-4.78h-39.26V-42.04z M2163.21-118.78
				h-38.48v-40.31h38.48c7.25,0,12.96,1.82,16.99,5.42c4.06,3.65,6.12,8.61,6.12,14.74c0,6.14-2.06,11.1-6.12,14.74
				C2176.18-120.6,2170.47-118.78,2163.21-118.78z M2127.8-121.85h35.41c6.48,0,11.51-1.56,14.94-4.63c3.43-3.07,5.1-7.15,5.1-12.45
				c0-5.3-1.67-9.37-5.1-12.45c-3.44-3.07-8.47-4.63-14.94-4.63h-35.41V-121.85z"/>
		</g>
	</g>
</g>
<g>
	<defs>
		<path id="SVGID_00000177445546574732948290000003769670914267126663_" d="M2581.86,52.95h-266.38c-1.97,0-3.56-1.59-3.56-3.56
			v-289.85c0-1.97,1.59-3.56,3.56-3.56h266.38c1.97,0,3.56,1.59,3.56,3.56V49.39C2585.42,51.36,2583.83,52.95,2581.86,52.95z"/>
	</defs>
	<clipPath id="SVGID_00000140732892572047615640000002119632452275432854_">
		<use xlink:href="#SVGID_00000177445546574732948290000003769670914267126663_"  style="overflow:visible;"/>
	</clipPath>
	
		<rect x="2253.93" y="-191" style="clip-path:url(#SVGID_00000140732892572047615640000002119632452275432854_);fill:#00A7E8;" width="344.7" height="273.36"/>
	
		<circle style="clip-path:url(#SVGID_00000140732892572047615640000002119632452275432854_);fill:#01BCEF;" cx="2450.66" cy="-319.51" r="196.52"/>
	<g style="clip-path:url(#SVGID_00000140732892572047615640000002119632452275432854_);">
		<g>
			<path class="st3" d="M2537.05-28.39c-9.26,12.62-21.28,22.46-36.06,29.56c-14.78,7.1-31.53,10.64-50.25,10.64
				c-21.09,0-39.81-4.29-56.16-12.86c-16.36-8.57-29.12-21.13-38.28-37.68c-9.16-16.55-13.75-36.45-13.75-59.71
				c0-23.25,4.58-43.16,13.75-59.71c9.16-16.55,21.92-29.12,38.28-37.69c16.36-8.57,35.08-12.86,56.16-12.86
				c17.93,0,34.19,3.35,48.77,10.05c14.58,6.7,26.5,15.72,35.77,27.05c9.26,11.33,15.37,23.8,18.32,37.39l-65.32,6.8
				c-2.36-9.06-6.85-16.41-13.45-22.02c-6.6-5.62-14.63-8.43-24.09-8.43c-11.43,0-21.28,4.54-29.56,13.6
				c-8.27,9.07-12.41,24.34-12.41,45.82c0,21.48,4.14,36.75,12.41,45.81c8.28,9.07,18.13,13.6,29.56,13.6
				c9.85,0,18.18-3.25,24.98-9.76c6.8-6.5,11.18-15.76,13.16-27.79l65.91,5.03C2552.22-55.39,2546.31-41,2537.05-28.39z"/>
			<path d="M2450.74,13.34c-21.24,0-40.37-4.39-56.87-13.04c-16.55-8.67-29.64-21.56-38.91-38.3
				c-9.25-16.71-13.94-37.05-13.94-60.45s4.69-43.75,13.94-60.45c9.27-16.74,22.36-29.63,38.91-38.3
				c16.5-8.65,35.64-13.03,56.87-13.03c18.06,0,34.69,3.43,49.41,10.19c14.73,6.77,26.94,16.01,36.31,27.47
				c9.38,11.48,15.65,24.28,18.64,38.04l0.36,1.67l-68.33,7.11l-0.34-1.27c-2.27-8.71-6.63-15.86-12.96-21.24
				c-6.29-5.35-14.06-8.06-23.09-8.06c-10.92,0-20.49,4.41-28.42,13.1c-7.97,8.73-12.01,23.8-12.01,44.78
				c0,20.99,4.04,36.05,12.01,44.78c7.93,8.69,17.5,13.1,28.42,13.1c9.4,0,17.45-3.14,23.91-9.33c6.52-6.23,10.79-15.29,12.7-26.92
				l0.23-1.39l68.97,5.26l-0.26,1.64c-2.58,16.33-8.65,31.07-18.01,43.82c-9.36,12.76-21.69,22.86-36.63,30.03
				C2486.73,9.71,2469.6,13.34,2450.74,13.34z M2450.74-207.16c-20.73,0-39.39,4.27-55.45,12.68
				c-16.01,8.39-28.67,20.86-37.64,37.07c-8.99,16.25-13.55,36.08-13.55,58.97s4.56,42.72,13.55,58.97
				c8.97,16.21,21.64,28.68,37.64,37.07c16.06,8.42,34.71,12.68,55.45,12.68c18.4,0,35.08-3.53,49.59-10.49
				c14.48-6.95,26.42-16.74,35.49-29.08h0c8.76-11.93,14.53-25.66,17.18-40.84l-62.85-4.79c-2.13,11.64-6.62,20.81-13.37,27.26
				c-7.06,6.76-15.82,10.18-26.04,10.18c-11.83,0-22.15-4.74-30.69-14.1c-8.5-9.31-12.81-25.07-12.81-46.85
				c0-21.77,4.31-37.53,12.81-46.85c8.55-9.35,18.87-14.1,30.69-14.1c9.79,0,18.23,2.96,25.08,8.79
				c6.5,5.53,11.07,12.77,13.59,21.53l62.31-6.48c-3.02-12.65-8.94-24.44-17.63-35.08c-9.08-11.1-20.93-20.05-35.22-26.62
				C2484.55-203.83,2468.36-207.16,2450.74-207.16z"/>
		</g>
	</g>
</g>
<g>
	<g>
		<path class="st3" d="M4.17,33.23v3.85H2.65v-3.85H1.15v-1.3h4.51v1.3H4.17z"/>
		<path class="st3" d="M8.41,35.45H7.81v1.63H6.29v-5.15h2.62c0.6,0,1.08,0.15,1.42,0.46c0.34,0.31,0.51,0.74,0.51,1.3
			c0,0.37-0.08,0.69-0.23,0.95c-0.15,0.26-0.37,0.46-0.66,0.6l1.05,1.84H9.25L8.41,35.45z M8.64,34.26c0.21,0,0.37-0.05,0.48-0.15
			c0.11-0.1,0.17-0.24,0.17-0.42s-0.06-0.32-0.17-0.42c-0.11-0.1-0.27-0.15-0.48-0.15H7.81v1.14H8.64z"/>
		<path class="st3" d="M13.16,36.12l-0.27,0.97H11.3l1.69-5.15h2.07l1.69,5.15h-1.62l-0.28-0.97H13.16z M14.01,33.21h-0.03
			l-0.51,1.83h1.06L14.01,33.21z"/>
		<path class="st3" d="M17.38,31.93h1.52v5.15h-1.52V31.93z"/>
		<path class="st3" d="M22.77,37.08l-1.55-3.1h-0.03v3.1h-1.38v-5.15h1.75l1.52,3.02h0.03v-3.02h1.38v5.15H22.77z"/>
		<path class="st3" d="M25.4,31.93h1.52v5.15H25.4V31.93z"/>
		<path class="st3" d="M30.79,37.08l-1.55-3.1h-0.03v3.1h-1.38v-5.15h1.75l1.52,3.02h0.03v-3.02h1.38v5.15H30.79z"/>
		<path class="st3" d="M38.26,34.22c0.01,0.09,0.01,0.19,0.01,0.29v-0.29H38.26z"/>
		<path class="st3" d="M38.27,34.51c0,0.57-0.11,1.05-0.33,1.46c-0.16,0.29-0.37,0.54-0.62,0.73c-0.09,0.07-0.19,0.13-0.29,0.19
			c-0.24,0.13-0.51,0.22-0.79,0.27c-0.06,0.01-0.12,0.02-0.19,0.03c-0.04,0-0.07,0-0.1,0.01c-0.07,0-0.15,0.01-0.23,0.01
			c-0.06,0-0.11,0-0.17-0.01c-0.4-0.03-0.76-0.13-1.08-0.31c-0.38-0.21-0.69-0.52-0.91-0.92c-0.08-0.15-0.14-0.3-0.19-0.46
			c-0.07-0.22-0.11-0.45-0.13-0.71c-0.01-0.09-0.01-0.19-0.01-0.29c0-0.57,0.11-1.05,0.33-1.46c0.16-0.3,0.37-0.54,0.62-0.74
			c0.09-0.07,0.19-0.13,0.29-0.18c0.24-0.13,0.51-0.22,0.79-0.27c0.06-0.01,0.12-0.02,0.19-0.03c0.04,0,0.07,0,0.1-0.01
			c0.05-0.01,0.11-0.01,0.16-0.01c0.08,0,0.16,0,0.24,0.01c0.4,0.03,0.76,0.13,1.08,0.31c0.38,0.21,0.69,0.52,0.91,0.92
			c0.08,0.15,0.14,0.3,0.19,0.46l-1.48,0.19c-0.16-0.41-0.43-0.63-0.83-0.64c-0.01,0-0.02,0-0.04,0h-0.07c-0.01,0-0.02,0-0.04,0
			c-0.24,0.03-0.45,0.13-0.61,0.32c-0.08,0.09-0.14,0.2-0.19,0.35c-0.07,0.2-0.1,0.47-0.1,0.78c0,0.1,0,0.2,0.01,0.29
			c0.03,0.38,0.12,0.65,0.28,0.83c0.16,0.19,0.37,0.3,0.61,0.33c0.01,0,0.02,0,0.04,0h0.04c0.02,0,0.05,0,0.07,0
			c0.24-0.03,0.45-0.13,0.62-0.33c0.08-0.09,0.14-0.2,0.19-0.34h-0.76v-1.07h2.4C38.27,34.31,38.27,34.41,38.27,34.51z"/>
		<path class="st3" d="M42.41,36.12l-0.27,0.97h-1.59l1.69-5.15h2.07L46,37.08h-1.62l-0.28-0.97H42.41z M43.26,33.21h-0.03
			l-0.51,1.83h1.06L43.26,33.21z"/>
		<path class="st3" d="M50.66,36.22c-0.22,0.31-0.5,0.55-0.84,0.72c-0.35,0.17-0.74,0.26-1.17,0.26c-0.49,0-0.93-0.1-1.31-0.31
			c-0.38-0.21-0.68-0.52-0.89-0.92c-0.21-0.4-0.32-0.89-0.32-1.46c0-0.57,0.11-1.05,0.32-1.46c0.21-0.4,0.51-0.71,0.89-0.92
			c0.38-0.21,0.82-0.31,1.31-0.31c0.42,0,0.8,0.08,1.14,0.25c0.34,0.16,0.62,0.38,0.84,0.66c0.22,0.28,0.36,0.58,0.43,0.91
			l-1.53,0.17c-0.05-0.22-0.16-0.4-0.31-0.54c-0.15-0.14-0.34-0.21-0.56-0.21c-0.27,0-0.5,0.11-0.69,0.33
			c-0.19,0.22-0.29,0.59-0.29,1.12c0,0.52,0.1,0.9,0.29,1.12s0.42,0.33,0.69,0.33c0.23,0,0.42-0.08,0.58-0.24
			c0.16-0.16,0.26-0.38,0.31-0.68l1.54,0.12C51.02,35.56,50.88,35.91,50.66,36.22z"/>
		<path class="st3" d="M53.09,36.12l-0.27,0.97h-1.59l1.69-5.15h2.07l1.69,5.15h-1.62l-0.28-0.97H53.09z M53.94,33.21h-0.03
			l-0.51,1.83h1.06L53.94,33.21z"/>
		<path class="st3" d="M61.38,32.56c0.48,0.42,0.72,1.07,0.72,1.95c0,0.88-0.24,1.54-0.72,1.95c-0.48,0.42-1.13,0.62-1.96,0.62h-2.1
			v-5.15h2.1C60.25,31.93,60.9,32.14,61.38,32.56z M59.92,35.78c0.2-0.07,0.35-0.21,0.46-0.41c0.11-0.2,0.16-0.49,0.16-0.86
			c0-0.37-0.05-0.66-0.16-0.86c-0.11-0.2-0.26-0.34-0.46-0.41s-0.45-0.11-0.76-0.11h-0.32v2.77h0.32
			C59.47,35.89,59.72,35.86,59.92,35.78z"/>
		<path class="st3" d="M66.56,33.89v1.14h-2.22v0.83h2.36v1.23h-3.89v-5.15h3.89v1.19h-2.36v0.76H66.56z"/>
		<path class="st3" d="M73.18,37.08h-1.41v-3.46h-0.03l-0.9,3.46h-1.04l-0.9-3.46h-0.03v3.46H67.5v-5.15h2.24l0.59,2.78h0.03
			l0.59-2.78h2.23V37.08z"/>
		<path class="st3" d="M77.09,35.2v1.88h-1.52V35.2l-1.76-3.27h1.67l0.86,1.88l0.87-1.88h1.63L77.09,35.2z"/>
	</g>
	<g>
		<path class="st10" d="M2.62,8.44C2.57,8.13,2.6,7.82,2.6,7.5c0-0.1,0.01-0.19,0.01-0.29c0-1.32,0-2.63,0-3.95
			c0-0.2,0.04-0.36,0.22-0.46c7.84,0,15.68,0,23.52,0c0.17,0.1,0.22,0.24,0.22,0.44c-0.01,1.79,0,3.58,0,5.37
			c0,0.06,0,0.11-0.01,0.17c-0.27,0.21-0.51,0.45-0.78,0.67c-0.54,0.44-1.09,0.85-1.67,1.22c-0.88,0.57-1.8,1.05-2.76,1.45
			c-0.27,0.11-0.53,0.25-0.83,0.3c-0.02-0.06-0.05-0.12-0.07-0.18c-0.71-1.96-1.41-3.92-2.12-5.87c-0.07-0.18-0.07-0.18-0.25-0.18
			c-2.29,0-4.59,0-6.88,0c-0.19,0-0.19,0-0.25,0.18c-0.48,1.33-0.96,2.66-1.44,3.99c-0.24,0.67-0.49,1.34-0.74,2.01
			c-0.35-0.15-0.71-0.29-1.06-0.44c-0.75-0.34-1.48-0.73-2.17-1.17C4.54,10.11,3.6,9.36,2.74,8.53C2.7,8.49,2.67,8.45,2.62,8.44z"/>
		<path class="st11" d="M77.2,2.8c0.17,0.12,0.21,0.29,0.21,0.49c-0.01,1.74,0,3.49,0,5.23c0,0.08-0.01,0.17-0.01,0.25
			c-0.19,0.1-0.33,0.27-0.49,0.41c-0.28,0.25-0.57,0.49-0.87,0.72c-0.55,0.41-1.13,0.79-1.71,1.15c-0.17-0.35-0.34-0.71-0.54-1.04
			c-1.09-1.76-2.64-2.93-4.56-3.64c-1.16-0.43-2.36-0.6-3.59-0.6c-1.16,0-2.31,0.14-3.42,0.48c-2.09,0.65-3.74,1.87-4.87,3.77
			c-0.19,0.32-0.35,0.65-0.51,0.99c-0.07-0.01-0.13-0.05-0.19-0.09c-0.41-0.25-0.81-0.52-1.2-0.8c-0.38-0.27-0.75-0.57-1.11-0.88
			c-0.25-0.21-0.5-0.43-0.72-0.67c-0.05-0.05-0.1-0.1-0.18-0.08c-0.03-0.12-0.01-0.24-0.01-0.36c0-1.62,0-3.24,0-4.87
			c0-0.2,0.05-0.35,0.21-0.46C61.49,2.8,69.35,2.8,77.2,2.8z"/>
		<path class="st12" d="M27.94,8.45c0-0.08-0.01-0.15-0.01-0.23c0-1.63,0-3.27,0-4.9c0-0.21,0.03-0.39,0.21-0.52
			c7.86,0,15.71,0,23.57,0c0.17,0.11,0.22,0.26,0.22,0.46c0,1.76,0,3.51,0,5.27c0,0.08-0.01,0.17-0.01,0.25
			c-0.09,0-0.13,0.07-0.18,0.13c-0.32,0.31-0.67,0.6-1.02,0.87c-0.58,0.45-1.18,0.87-1.81,1.24c-0.28,0.16-0.54,0.34-0.85,0.46
			c0-0.18,0-0.35-0.01-0.53c-0.07-1.2-0.49-2.23-1.35-3.08c-0.62-0.61-1.35-1.01-2.17-1.28c-0.93-0.3-1.89-0.4-2.86-0.4
			c-3.37,0-6.74,0-10.11,0c-0.25,0-0.22-0.01-0.22,0.23c0,1.43,0,2.86,0,4.29c0,0.09-0.01,0.18-0.01,0.27
			c-0.11-0.02-0.21-0.08-0.3-0.14c-0.3-0.2-0.6-0.4-0.9-0.6c-0.36-0.25-0.71-0.52-1.04-0.8c-0.34-0.29-0.68-0.57-0.99-0.9
			C28.04,8.49,28,8.45,27.94,8.45z"/>
		<path class="st13" d="M53.44,8.49c0.08-0.01,0.13,0.03,0.18,0.08c0.22,0.24,0.47,0.46,0.72,0.67c0.36,0.31,0.72,0.61,1.11,0.88
			c0.39,0.28,0.78,0.55,1.2,0.8c0.06,0.04,0.12,0.08,0.19,0.09c-0.15,0.39-0.3,0.78-0.41,1.19c-0.29,1.04-0.42,2.1-0.43,3.18
			c-0.01,1.16,0.08,2.31,0.4,3.44c0.84,2.99,2.7,5.03,5.66,6.03c1.02,0.35,2.08,0.5,3.16,0.53c1.21,0.03,2.4-0.07,3.55-0.43
			c2.76-0.87,4.69-2.63,5.7-5.37c0.19-0.52,0.32-1.06,0.4-1.61c0.02-0.15,0.02-0.15-0.13-0.16c-0.13-0.01-0.25-0.01-0.38-0.02
			c-0.87-0.07-1.73-0.13-2.6-0.2c-0.64-0.05-1.29-0.1-1.93-0.15c-0.29-0.02-0.57-0.04-0.86-0.06c-0.1-0.01-0.14,0.03-0.15,0.12
			c0,0.03-0.01,0.07-0.02,0.1c-0.1,0.52-0.25,1.02-0.51,1.48c-0.72,1.29-2.03,1.79-3.35,1.51c-1.15-0.25-1.94-0.96-2.4-2.04
			c-0.25-0.6-0.36-1.24-0.42-1.88c-0.08-0.84-0.07-1.68,0.04-2.52c0.04-0.33,0.09-0.67,0.21-0.98c0.08,0,0.16-0.01,0.23,0.01
			c0.41,0.07,0.82,0.13,1.24,0.17c0.47,0.05,0.94,0.08,1.42,0.08c0.43,0,0.87,0,1.3,0c0.06,0,0.13,0,0.19-0.01
			c0.25-0.05,0.5-0.03,0.75-0.07c0.17-0.03,0.34-0.04,0.52-0.06c0.26-0.04,0.52-0.07,0.78-0.11c0.03,0.02,0.06,0.03,0.1,0.03
			c0.54-0.06,1.07-0.11,1.61-0.17c0.75-0.08,1.49-0.16,2.24-0.23c0.62-0.07,1.24-0.13,1.86-0.2c0.21-0.02,0.2-0.03,0.16-0.22
			c-0.09-0.45-0.25-0.88-0.41-1.3c0.59-0.36,1.16-0.74,1.71-1.15c0.3-0.23,0.59-0.47,0.87-0.72c0.16-0.14,0.3-0.31,0.49-0.41
			c0,0.08,0.01,0.15,0.01,0.23c0,6.45,0,12.89,0,19.34c0,0.36-0.07,0.51-0.52,0.51c-7.65-0.01-15.3-0.01-22.95,0
			c-0.42,0-0.52-0.12-0.52-0.51c0.01-5.39,0-10.79,0-16.18c0-1.16,0-2.31,0-3.47C53.43,8.63,53.43,8.56,53.44,8.49z"/>
		<path class="st14" d="M20.54,12.41c0.29-0.05,0.56-0.19,0.83-0.3c0.97-0.4,1.88-0.88,2.76-1.45c0.58-0.38,1.13-0.79,1.67-1.22
			c0.27-0.22,0.51-0.46,0.78-0.67c0,0.08,0.01,0.17,0.01,0.25c0,6.45,0,12.89,0,19.34c0,0.41-0.13,0.49-0.49,0.49
			c-7.66,0-15.33,0-22.99,0c-0.01,0-0.01,0-0.02,0c-0.35,0.03-0.47-0.11-0.47-0.47c0.01-6.59,0-13.17,0-19.76
			c0-0.06,0-0.13,0.01-0.19C2.67,8.45,2.7,8.49,2.74,8.53c0.87,0.84,1.8,1.58,2.82,2.23c0.7,0.44,1.42,0.83,2.17,1.17
			c0.35,0.16,0.71,0.29,1.06,0.44c-0.03,0.09-0.05,0.17-0.09,0.26c-0.29,0.82-0.59,1.63-0.89,2.45c-1.16,3.22-2.33,6.45-3.49,9.67
			c-0.08,0.23-0.08,0.23,0.15,0.23c1.94,0,3.87,0,5.81,0c0.22,0,0.22,0,0.29-0.21c0.29-0.9,0.59-1.8,0.88-2.7
			c0.08-0.25,0.06-0.2,0.29-0.2c1.9,0,3.8,0,5.7,0c0.22,0,0.22,0,0.29,0.21c0.3,0.9,0.6,1.8,0.9,2.69c0.07,0.22,0.03,0.21,0.29,0.21
			c1.97,0,3.94,0,5.91,0c0.07,0,0.14,0.02,0.2-0.02c0.02-0.07-0.02-0.12-0.04-0.18c-0.51-1.43-1.03-2.86-1.55-4.29
			c-0.64-1.76-1.27-3.52-1.91-5.28C21.21,14.28,20.87,13.34,20.54,12.41z"/>
		<path class="st15" d="M48.05,11.47c0.3-0.12,0.57-0.29,0.85-0.46c0.63-0.37,1.24-0.79,1.81-1.24c0.35-0.27,0.7-0.56,1.02-0.87
			c0.05-0.05,0.1-0.13,0.18-0.13c0,0.08,0.01,0.17,0.01,0.25c0,6.44,0,12.88,0,19.32c0,0.07,0,0.14,0,0.21
			c-0.02,0.17-0.13,0.28-0.3,0.3c-0.06,0.01-0.11,0-0.17,0c-7.68,0-15.36,0-23.03,0c-0.05,0-0.1,0-0.15,0
			c-0.2-0.01-0.31-0.12-0.33-0.32c-0.01-0.06,0-0.11,0-0.17c0-6.57,0-13.14,0-19.72c0-0.07,0-0.14,0.01-0.21
			c0.06,0,0.1,0.05,0.14,0.09c0.31,0.33,0.65,0.61,0.99,0.9c0.33,0.28,0.68,0.55,1.04,0.8c0.3,0.2,0.6,0.4,0.9,0.6
			c0.09,0.06,0.19,0.12,0.3,0.14c0,0.07,0,0.14,0,0.21c0,4.51,0,9.02,0,13.53c0,0.3-0.01,0.26,0.26,0.26c3.43,0,6.86,0,10.28,0
			c0.5,0,0.99-0.02,1.49-0.07c0.76-0.08,1.49-0.25,2.19-0.56c1.26-0.57,2.19-1.46,2.7-2.77c0.35-0.91,0.45-1.86,0.38-2.83
			c-0.08-1.01-0.5-1.87-1.22-2.59c-0.43-0.43-0.92-0.78-1.45-1.06c-0.07-0.03-0.14-0.06-0.19-0.11c0-0.01,0-0.02,0.01-0.02
			c0.08-0.05,0.15-0.1,0.23-0.15c0.74-0.46,1.33-1.04,1.71-1.84C47.91,12.5,48,11.99,48.05,11.47z"/>
		<path class="st16" d="M20.54,12.41c0.33,0.93,0.67,1.86,1,2.79c0.64,1.76,1.27,3.52,1.91,5.28c0.52,1.43,1.03,2.86,1.55,4.29
			c0.02,0.06,0.06,0.11,0.04,0.18c-0.07,0.04-0.14,0.02-0.2,0.02c-1.97,0-3.94,0-5.91,0c-0.26,0-0.21,0-0.29-0.21
			c-0.3-0.9-0.6-1.8-0.9-2.69c-0.07-0.21-0.07-0.21-0.29-0.21c-1.9,0-3.8,0-5.7,0c-0.23,0-0.21-0.04-0.29,0.2
			c-0.29,0.9-0.58,1.8-0.88,2.7c-0.07,0.21-0.07,0.21-0.29,0.21c-1.94,0-3.87,0-5.81,0c-0.23,0-0.23,0-0.15-0.23
			c1.16-3.22,2.33-6.45,3.49-9.67c0.29-0.82,0.59-1.63,0.89-2.45c0.03-0.09,0.06-0.17,0.09-0.26c0.25-0.67,0.49-1.34,0.74-2.01
			c0.48-1.33,0.96-2.66,1.44-3.99c0.06-0.18,0.06-0.18,0.25-0.18c2.29,0,4.59,0,6.88,0c0.18,0,0.18,0,0.25,0.18
			c0.71,1.96,1.41,3.92,2.12,5.87C20.49,12.3,20.52,12.36,20.54,12.41z M24.65,24.68c0.01-0.07-0.03-0.14-0.05-0.2
			c-2.15-5.95-4.29-11.89-6.44-17.84c-0.06-0.17-0.06-0.17-0.25-0.18c-0.02,0-0.04,0-0.06,0c-2.12,0-4.25,0-6.37,0
			c-0.3,0-0.22-0.05-0.33,0.24c-2.08,5.75-4.15,11.5-6.23,17.25c-0.09,0.24-0.17,0.49-0.26,0.73c0.07,0.03,0.12,0.02,0.18,0.02
			c1.77,0,3.53,0,5.3,0c0.18,0,0.18,0,0.24-0.18c0.3-0.92,0.6-1.84,0.89-2.76c0.03-0.1,0.06-0.18,0.21-0.18
			c2.08,0.01,4.17,0.01,6.25,0c0.13,0,0.17,0.05,0.2,0.16c0.12,0.37,0.24,0.73,0.36,1.1c0.19,0.56,0.37,1.12,0.56,1.67
			c0.06,0.19,0.06,0.19,0.28,0.19c1.77,0,3.55,0,5.32,0C24.51,24.69,24.58,24.71,24.65,24.68z"/>
		<path class="st17" d="M74.32,11.06c0.16,0.43,0.32,0.85,0.41,1.3c0.04,0.2,0.04,0.2-0.16,0.22c-0.62,0.07-1.24,0.13-1.86,0.2
			c-0.75,0.08-1.49,0.16-2.24,0.23c-0.54,0.06-1.07,0.11-1.61,0.17c-0.04,0-0.07-0.01-0.1-0.03c-0.09-0.43-0.26-0.83-0.5-1.2
			c-0.35-0.53-0.8-0.97-1.4-1.2c-1.24-0.48-2.39-0.3-3.42,0.56c-0.58,0.48-0.94,1.11-1.1,1.84c-0.12,0.32-0.16,0.65-0.21,0.98
			c-0.11,0.84-0.12,1.68-0.04,2.52c0.06,0.64,0.17,1.28,0.42,1.88c0.46,1.08,1.25,1.79,2.4,2.04c1.32,0.29,2.63-0.21,3.35-1.51
			c0.26-0.46,0.41-0.96,0.51-1.48c0.01-0.03,0.01-0.07,0.02-0.1c0.01-0.09,0.05-0.13,0.15-0.12c0.29,0.03,0.57,0.04,0.86,0.06
			c0.64,0.05,1.29,0.1,1.93,0.15c0.87,0.07,1.73,0.13,2.6,0.2c0.13,0.01,0.25,0.01,0.38,0.02c0.15,0.01,0.15,0.02,0.13,0.16
			c-0.08,0.55-0.21,1.09-0.4,1.61c-1.01,2.74-2.94,4.5-5.7,5.37c-1.15,0.36-2.35,0.47-3.55,0.43c-1.08-0.03-2.14-0.19-3.16-0.53
			c-2.96-1-4.83-3.04-5.66-6.03c-0.31-1.12-0.41-2.27-0.4-3.44c0.01-1.08,0.14-2.14,0.43-3.18c0.11-0.41,0.27-0.8,0.41-1.19
			c0.17-0.33,0.32-0.67,0.51-0.99c1.13-1.89,2.78-3.12,4.87-3.77c1.11-0.35,2.26-0.49,3.42-0.48c1.23,0,2.43,0.18,3.59,0.6
			c1.92,0.71,3.48,1.88,4.56,3.64C73.99,10.35,74.16,10.7,74.32,11.06z M74.42,12.31c0.01-0.07-0.01-0.12-0.02-0.17
			c-0.46-1.67-1.38-3.03-2.73-4.09c-1.4-1.11-3-1.73-4.77-1.92c-1.44-0.16-2.87-0.08-4.27,0.3c-2.99,0.83-4.96,2.72-5.9,5.68
			c-0.28,0.88-0.41,1.79-0.46,2.71c-0.08,1.47,0.03,2.92,0.48,4.32c0.75,2.35,2.22,4.09,4.49,5.11c1.09,0.49,2.24,0.74,3.43,0.83
			c1.24,0.09,2.47,0.01,3.67-0.31c3.22-0.85,5.54-3.26,6.17-6.54c0.03-0.17,0.03-0.18-0.11-0.19c-0.8-0.06-1.61-0.12-2.41-0.18
			c-0.64-0.05-1.29-0.1-1.93-0.15c-0.3-0.02-0.6-0.04-0.9-0.06c-0.08-0.01-0.13,0.01-0.14,0.1c0,0.06-0.02,0.11-0.04,0.16
			c-0.11,0.48-0.27,0.94-0.53,1.37c-0.75,1.25-1.98,1.81-3.4,1.6c-1.26-0.19-2.16-0.91-2.72-2.05c-0.26-0.53-0.38-1.1-0.47-1.67
			c-0.11-0.8-0.12-1.59-0.08-2.39c0.04-0.69,0.15-1.36,0.37-2.02c0.49-1.49,1.9-2.49,3.3-2.51c0.91-0.01,1.72,0.22,2.4,0.84
			c0.51,0.46,0.85,1.02,1.06,1.66c0.04,0.11,0.07,0.15,0.2,0.14c0.7-0.08,1.39-0.15,2.09-0.22c0.88-0.09,1.76-0.18,2.64-0.27
			C74.05,12.36,74.24,12.37,74.42,12.31z"/>
		<path class="st18" d="M48.05,11.47c-0.04,0.52-0.14,1.03-0.36,1.5c-0.37,0.8-0.97,1.38-1.71,1.84c-0.08,0.05-0.15,0.1-0.23,0.15
			c0,0,0,0.01-0.01,0.02c0.05,0.05,0.13,0.08,0.19,0.11c0.54,0.28,1.02,0.63,1.45,1.06c0.72,0.72,1.14,1.58,1.22,2.59
			c0.08,0.97-0.02,1.92-0.38,2.83c-0.51,1.31-1.44,2.2-2.7,2.77c-0.7,0.31-1.43,0.48-2.19,0.56c-0.5,0.05-0.99,0.07-1.49,0.07
			c-3.43,0-6.86,0-10.28,0c-0.27,0-0.26,0.04-0.26-0.26c0-4.51,0-9.02,0-13.53c0-0.07,0-0.14,0-0.21c0-0.09,0.01-0.18,0.01-0.27
			c0-1.43,0-2.86,0-4.29c0-0.24-0.02-0.23,0.22-0.23c3.37,0,6.74,0,10.11,0c0.97,0,1.93,0.1,2.86,0.4c0.82,0.27,1.55,0.68,2.17,1.28
			c0.86,0.85,1.29,1.88,1.35,3.08C48.04,11.12,48.04,11.3,48.05,11.47z M31.58,15.58c0,2.96,0,5.92,0,8.88
			c0,0.26-0.04,0.23,0.24,0.23c3.37,0,6.75,0,10.12,0c0.4,0,0.8,0,1.2-0.04c0.72-0.07,1.41-0.2,2.08-0.47
			c1.33-0.54,2.31-1.44,2.8-2.82c0.3-0.84,0.39-1.7,0.32-2.59c-0.07-0.84-0.38-1.57-0.94-2.2c-0.53-0.6-1.18-1.05-1.91-1.39
			c-0.08-0.04-0.15-0.06-0.14-0.17c0-0.11,0.02-0.18,0.13-0.23c0.3-0.15,0.57-0.33,0.83-0.53c0.65-0.51,1.11-1.14,1.32-1.95
			c0.13-0.5,0.15-1.01,0.11-1.52c-0.08-0.89-0.38-1.69-0.95-2.38c-0.6-0.73-1.37-1.21-2.26-1.51c-0.91-0.32-1.85-0.42-2.81-0.42
			c-3.3,0-6.61,0-9.91,0c-0.27,0-0.23-0.03-0.23,0.24C31.58,9.66,31.58,12.62,31.58,15.58z"/>
		<path class="st11" d="M62.35,13.16c0.17-0.73,0.53-1.35,1.1-1.84c1.03-0.86,2.18-1.04,3.42-0.56c0.6,0.23,1.05,0.67,1.4,1.2
			c0.24,0.37,0.41,0.77,0.5,1.2c-0.26,0.04-0.52,0.08-0.78,0.11c-0.17,0.02-0.35,0.04-0.52,0.06c-0.25,0.04-0.5,0.02-0.75,0.07
			c-0.06,0.01-0.13,0.01-0.19,0.01c-0.43,0-0.87,0-1.3,0c-0.47,0-0.95-0.03-1.42-0.08c-0.41-0.04-0.83-0.1-1.24-0.17
			C62.5,13.15,62.42,13.16,62.35,13.16z"/>
		<path class="st19" d="M24.65,24.68c-0.07,0.03-0.14,0.02-0.21,0.02c-1.77,0-3.55,0-5.32,0c-0.21,0-0.21,0-0.28-0.19
			c-0.19-0.56-0.37-1.12-0.56-1.67c-0.12-0.37-0.25-0.73-0.36-1.1c-0.03-0.11-0.08-0.16-0.2-0.16c-2.08,0-4.17,0.01-6.25,0
			c-0.15,0-0.17,0.07-0.21,0.18c-0.3,0.92-0.59,1.84-0.89,2.76c-0.06,0.18-0.06,0.18-0.24,0.18c-1.77,0-3.53,0-5.3,0
			c-0.05,0-0.11,0.01-0.18-0.02c0.09-0.24,0.17-0.48,0.26-0.73c2.07-5.75,4.15-11.5,6.23-17.25c0.11-0.29,0.03-0.24,0.33-0.24
			c2.12,0,4.25,0,6.37,0c0.02,0,0.04,0,0.06,0c0.18,0,0.18,0,0.25,0.18c2.15,5.95,4.29,11.89,6.44,17.84
			C24.62,24.54,24.66,24.6,24.65,24.68z M16.73,17.6c0.02-0.08-0.02-0.14-0.04-0.21c-0.36-1.19-0.71-2.39-1.07-3.58
			c-0.29-0.96-0.58-1.92-0.87-2.88c-0.03-0.1-0.06-0.18-0.19-0.17c-0.16,0.01-0.16,0-0.21,0.17c-0.64,2.17-1.27,4.34-1.91,6.51
			c-0.01,0.05-0.05,0.1-0.01,0.16C13.88,17.6,15.3,17.6,16.73,17.6z"/>
		<path class="st19" d="M74.42,12.31c-0.18,0.06-0.37,0.05-0.56,0.07c-0.88,0.1-1.76,0.18-2.64,0.27c-0.7,0.07-1.39,0.14-2.09,0.22
			c-0.13,0.01-0.16-0.02-0.2-0.14c-0.21-0.65-0.56-1.21-1.06-1.66c-0.68-0.61-1.49-0.85-2.4-0.84c-1.4,0.02-2.81,1.02-3.3,2.51
			c-0.22,0.66-0.33,1.33-0.37,2.02c-0.04,0.8-0.04,1.6,0.08,2.39c0.08,0.58,0.21,1.15,0.47,1.67c0.56,1.14,1.46,1.86,2.72,2.05
			c1.41,0.21,2.65-0.35,3.4-1.6c0.25-0.42,0.42-0.89,0.53-1.37c0.01-0.05,0.03-0.11,0.04-0.16c0.01-0.1,0.06-0.11,0.14-0.1
			c0.3,0.02,0.6,0.04,0.9,0.06c0.64,0.05,1.29,0.1,1.93,0.15c0.8,0.06,1.61,0.12,2.41,0.18c0.15,0.01,0.15,0.01,0.11,0.19
			c-0.63,3.27-2.96,5.69-6.17,6.54c-1.2,0.32-2.43,0.4-3.67,0.31c-1.19-0.09-2.34-0.34-3.43-0.83c-2.27-1.02-3.74-2.76-4.49-5.11
			c-0.45-1.41-0.56-2.85-0.48-4.32c0.05-0.92,0.18-1.83,0.46-2.71c0.94-2.96,2.91-4.85,5.9-5.68c1.4-0.39,2.83-0.46,4.27-0.3
			c1.77,0.2,3.37,0.82,4.77,1.92c1.35,1.07,2.27,2.43,2.73,4.09C74.41,12.19,74.43,12.24,74.42,12.31z"/>
		<path class="st19" d="M31.58,15.58c0-2.96,0-5.92,0-8.88c0-0.27-0.04-0.24,0.23-0.24c3.3,0,6.61,0,9.91,0
			c0.96,0,1.9,0.11,2.81,0.42c0.89,0.31,1.66,0.79,2.26,1.51c0.57,0.69,0.87,1.49,0.95,2.38c0.04,0.51,0.02,1.02-0.11,1.52
			c-0.21,0.8-0.67,1.44-1.32,1.95c-0.26,0.2-0.54,0.38-0.83,0.53c-0.11,0.05-0.13,0.12-0.13,0.23c0,0.11,0.07,0.14,0.14,0.17
			c0.73,0.33,1.37,0.78,1.91,1.39c0.56,0.63,0.86,1.37,0.94,2.2c0.08,0.89-0.02,1.75-0.32,2.59c-0.49,1.37-1.47,2.28-2.8,2.82
			c-0.67,0.27-1.37,0.41-2.08,0.47c-0.4,0.04-0.8,0.04-1.2,0.04c-3.37,0-6.75,0-10.12,0c-0.27,0-0.24,0.03-0.24-0.23
			C31.58,21.5,31.58,18.54,31.58,15.58z M39.12,20.8c0.5,0,1,0,1.49,0c0.26,0,0.52-0.01,0.77-0.06c0.68-0.15,1.17-0.51,1.37-1.21
			c0.08-0.28,0.09-0.57,0.06-0.86c-0.08-0.66-0.42-1.13-1.04-1.39c-0.27-0.11-0.55-0.17-0.84-0.17c-1.26,0-2.52,0-3.79-0.01
			c-0.12,0-0.14,0.04-0.14,0.15c0,1.13,0,2.26,0,3.39c0,0.15,0,0.16,0.17,0.16C37.83,20.8,38.47,20.8,39.12,20.8z M38.91,13.79
			c0.49,0,0.98,0,1.47,0c0.2,0,0.39-0.01,0.59-0.05c0.75-0.13,1.26-0.61,1.41-1.31c0.04-0.2,0.04-0.4,0.03-0.61
			c-0.06-0.63-0.37-1.09-0.94-1.36c-0.3-0.14-0.63-0.2-0.96-0.2c-1.11-0.01-2.23,0-3.34,0c-0.14,0-0.15,0-0.15,0.15
			c0,1.08,0,2.16,0,3.24c0,0.14,0,0.15,0.15,0.15C37.75,13.79,38.33,13.79,38.91,13.79z"/>
		<path class="st20" d="M16.73,17.6c-1.43,0-2.86,0-4.29,0c-0.04-0.05,0-0.11,0.01-0.16c0.63-2.17,1.27-4.34,1.91-6.51
			c0.05-0.17,0.05-0.15,0.21-0.17c0.13-0.01,0.16,0.06,0.19,0.17c0.29,0.96,0.58,1.92,0.87,2.88c0.36,1.19,0.71,2.39,1.07,3.58
			C16.72,17.46,16.75,17.52,16.73,17.6z M13.93,13.41c-0.02,0.05-0.03,0.09-0.05,0.14c-0.31,1.07-0.63,2.15-0.94,3.22
			c-0.05,0.18-0.13,0.35-0.15,0.55c1.2,0,2.38,0,3.58,0c-0.02-0.07-0.03-0.13-0.05-0.19c-0.19-0.64-0.38-1.29-0.58-1.93
			c-0.18-0.6-0.36-1.19-0.54-1.79c-0.21-0.71-0.42-1.42-0.63-2.15c-0.03,0.05-0.04,0.07-0.05,0.1
			C14.32,12.04,14.12,12.72,13.93,13.41z"/>
		<path class="st18" d="M39.12,20.8c-0.65,0-1.29,0-1.94,0c-0.16,0-0.17,0-0.17-0.16c0-1.13,0-2.26,0-3.39
			c0-0.1,0.02-0.15,0.14-0.15c1.26,0,2.52,0,3.79,0.01c0.29,0,0.57,0.06,0.84,0.17c0.62,0.26,0.96,0.73,1.04,1.39
			c0.03,0.29,0.03,0.58-0.06,0.86c-0.2,0.69-0.69,1.06-1.37,1.21c-0.26,0.06-0.51,0.06-0.77,0.06C40.11,20.8,39.61,20.8,39.12,20.8z
			 M39.19,20.52c0.5,0,1.01,0,1.51,0c0.19,0,0.38-0.01,0.56-0.05c0.31-0.06,0.59-0.16,0.83-0.38c0.38-0.35,0.48-0.79,0.45-1.28
			c-0.05-0.74-0.45-1.2-1.17-1.37c-0.18-0.04-0.37-0.07-0.56-0.07c-1.12,0-2.24,0-3.36,0c-0.16,0-0.17,0-0.17,0.16
			c0,0.94,0,1.88,0,2.82c0,0.17,0,0.17,0.18,0.17C38.05,20.52,38.62,20.52,39.19,20.52z"/>
		<path class="st18" d="M38.91,13.79c-0.58,0-1.16,0-1.74,0c-0.15,0-0.15,0-0.15-0.15c0-1.08,0-2.16,0-3.24c0-0.15,0-0.15,0.15-0.15
			c1.11,0,2.23,0,3.34,0c0.33,0,0.66,0.06,0.96,0.2c0.57,0.27,0.89,0.73,0.94,1.36c0.02,0.2,0.02,0.41-0.03,0.61
			c-0.15,0.7-0.66,1.18-1.41,1.31c-0.19,0.03-0.39,0.05-0.59,0.05C39.89,13.79,39.4,13.79,38.91,13.79z M37.3,13.2
			c-0.01,0.04-0.02,0.08-0.02,0.12c0,0.21,0,0.21,0.2,0.21c0.97,0,1.94,0,2.91,0c0.25,0,0.5-0.01,0.74-0.12
			c0.45-0.12,0.76-0.4,0.92-0.84c0.08-0.22,0.1-0.45,0.08-0.68c-0.05-0.6-0.36-1.02-0.93-1.23c-0.24-0.09-0.49-0.12-0.74-0.12
			c-1,0-2.01,0-3.01,0c-0.17,0-0.17,0-0.17,0.18c0,0.79,0,1.59,0,2.38C37.29,13.13,37.3,13.16,37.3,13.2z"/>
		<path class="st14" d="M15.21,13.41c0.18,0.6,0.36,1.19,0.54,1.79c0.19,0.64,0.39,1.29,0.58,1.93c0.02,0.06,0.03,0.12,0.05,0.19
			c-1.2,0-2.39,0-3.58,0c0.02-0.2,0.09-0.37,0.15-0.55c0.31-1.08,0.63-2.15,0.94-3.22c0.01-0.05,0.03-0.09,0.05-0.14
			C14.35,13.41,14.78,13.41,15.21,13.41z"/>
		<path class="st10" d="M15.21,13.41c-0.43,0-0.85,0-1.28,0c0.2-0.68,0.39-1.37,0.59-2.05c0.01-0.03,0.02-0.05,0.05-0.1
			C14.79,11.99,15,12.7,15.21,13.41z"/>
		<path class="st15" d="M39.19,20.52c-0.57,0-1.15,0-1.72,0c-0.18,0-0.18,0-0.18-0.17c0-0.94,0-1.88,0-2.82c0-0.16,0-0.16,0.17-0.16
			c1.12,0,2.24,0,3.36,0c0.19,0,0.38,0.03,0.56,0.07c0.72,0.17,1.13,0.63,1.17,1.37c0.03,0.49-0.07,0.93-0.45,1.28
			c-0.24,0.22-0.52,0.32-0.83,0.38c-0.19,0.03-0.37,0.05-0.56,0.05C40.2,20.52,39.7,20.52,39.19,20.52z"/>
		<path class="st12" d="M37.3,13.2c0-0.03-0.01-0.07-0.01-0.1c0-0.79,0-1.59,0-2.38c0-0.18,0-0.18,0.17-0.18c1,0,2.01,0,3.01,0
			c0.25,0,0.5,0.03,0.74,0.12c0.57,0.21,0.88,0.62,0.93,1.23c0.02,0.23,0,0.46-0.08,0.68c-0.16,0.44-0.47,0.72-0.92,0.84
			c-0.79-0.02-1.58,0.03-2.37-0.04C38.28,13.33,37.79,13.27,37.3,13.2z"/>
		<path class="st15" d="M37.3,13.2c0.49,0.07,0.98,0.13,1.47,0.17c0.79,0.07,1.58,0.02,2.37,0.04c-0.24,0.1-0.49,0.12-0.74,0.12
			c-0.97,0-1.94,0-2.91,0c-0.21,0-0.21,0-0.2-0.21C37.28,13.28,37.29,13.24,37.3,13.2z"/>
	</g>
</g>
</svg>
